<svg width="20" height="20" viewBox="0 0 20 20" fill="none" xmlns="http://www.w3.org/2000/svg">
<path d="M10 -9.15527e-05C4.475 -9.15527e-05 0 4.59114 0 10.2537C0 14.7849 2.865 18.6275 6.8375 19.9822C7.3375 20.0787 7.52083 19.7614 7.52083 19.4892C7.52083 19.2457 7.5125 18.6005 7.50833 17.7457C4.72667 18.364 4.14 16.3701 4.14 16.3701C3.685 15.1866 3.0275 14.8701 3.0275 14.8701C2.12167 14.2345 3.0975 14.2475 3.0975 14.2475C4.10167 14.3188 4.62917 15.304 4.62917 15.304C5.52083 16.8718 6.97 16.4188 7.54167 16.1571C7.63167 15.4936 7.88917 15.0423 8.175 14.7858C5.95417 14.5293 3.62 13.6475 3.62 9.71889C3.62 8.59978 4.0075 7.68501 4.64917 6.96763C4.53667 6.7085 4.19917 5.66591 4.73667 4.25376C4.73667 4.25376 5.57417 3.97898 7.48667 5.30505C8.28667 5.07722 9.13667 4.96418 9.98667 4.95896C10.8367 4.96418 11.6867 5.07722 12.4867 5.30505C14.3867 3.97898 15.2242 4.25376 15.2242 4.25376C15.7617 5.66591 15.4242 6.7085 15.3242 6.96763C15.9617 7.68501 16.3492 8.59978 16.3492 9.71889C16.3492 13.658 14.0117 14.5249 11.7867 14.7771C12.1367 15.0849 12.4617 15.7136 12.4617 16.6744C12.4617 18.0466 12.4492 19.1492 12.4492 19.4822C12.4492 19.7509 12.6242 20.0718 13.1367 19.9692C17.1375 18.6231 20 14.7779 20 10.2537C20 4.59114 15.5225 -9.15527e-05 10 -9.15527e-05Z" fill="white"/>
</svg>

