<svg width="21" height="24" viewBox="0 0 21 24" fill="none" xmlns="http://www.w3.org/2000/svg">
<path d="M0.0022811 0.794495L1.55993 20.7218C1.58331 21.021 1.78586 21.2762 2.07199 21.3669L10.2684 23.9655C10.4133 24.0115 10.5689 24.0115 10.7139 23.9655L18.9102 21.3669C19.1964 21.2762 19.3989 21.021 19.4223 20.7218L20.98 0.794495C21.0135 0.366069 20.6749 0 20.2452 0H0.737129C0.307431 0 -0.0311638 0.366069 0.0022811 0.794495ZM16.9855 6.97726H6.83399L7.14036 9.80239H16.7647L16.1351 17.8564L10.4911 19.6458L4.8472 17.8564L4.51828 13.6487H7.48067V15.7126L10.5703 16.5418L13.6415 15.7126L13.8797 12.4233H4.42248L3.7946 4.39034H17.1876L16.9855 6.97726Z" fill="white"/>
</svg>
