<svg width="20" height="20" viewBox="0 0 20 20" fill="none" xmlns="http://www.w3.org/2000/svg">
<path fill-rule="evenodd" clip-rule="evenodd" d="M15.1745 9.9996C15.1694 7.1446 12.8544 4.83155 9.9994 4.82755C7.1444 4.83256 4.83236 7.14561 4.82835 9.9996C4.83135 12.8546 7.1454 15.1696 10.0004 15.1737C12.8564 15.1696 15.1704 12.8556 15.1745 9.9996ZM9.99939 13.1611C8.25434 13.1621 6.83886 11.7476 6.83786 10.0016C6.83786 8.25652 8.25234 6.84105 9.99839 6.84004C9.99839 6.84004 8.25334 6.83904 9.99939 6.84004C11.7454 6.84105 13.1599 8.25652 13.1599 10.0016C13.1589 11.7466 11.7444 13.1611 9.99939 13.1611Z" fill="white"/>
<path d="M16.4209 4.86702C16.4209 4.18282 15.867 3.62785 15.1828 3.62785C14.4976 3.62785 13.9436 4.18282 13.9436 4.86702C13.9436 5.55121 14.4976 6.10619 15.1828 6.10619C15.867 6.10619 16.4209 5.55121 16.4209 4.86702Z" fill="white"/>
<path fill-rule="evenodd" clip-rule="evenodd" d="M5.95743 0H14.0416C17.3303 0.00400701 19.996 2.66867 20 5.95743V14.0416C19.997 17.3303 17.3313 19.996 14.0426 20H5.95843C2.66967 19.997 0.00400701 17.3313 0 14.0426V5.95943C0.00300526 2.66967 2.66867 0.00400701 5.95743 0ZM14.0416 17.9885C16.2214 17.9885 17.9885 16.2224 17.9885 14.0416V5.95943C17.9885 3.77961 16.2214 2.01252 14.0426 2.01152H5.95843C3.77861 2.01152 2.01252 3.77861 2.01152 5.95743V14.0416C2.01152 16.2214 3.77761 17.9875 5.95743 17.9885H14.0416Z" fill="white"/>
</svg>

