<svg width="22" height="24" viewBox="0 0 22 24" fill="none" xmlns="http://www.w3.org/2000/svg">
<path fill-rule="evenodd" clip-rule="evenodd" d="M0.604492 1.20312L2.34304 20.8385C2.38361 21.2967 2.7037 21.6819 3.14675 21.8058L10.998 24L18.8462 21.8072C19.2893 21.6834 19.6094 21.2982 19.65 20.84L21.3913 1.20326C21.4486 0.556643 20.9391 0 20.29 0H1.70579C1.05669 0 0.547243 0.55655 0.604492 1.20312ZM10.3606 19.4198L4.70937 18.2782L4.35253 14.2935H7.0185L7.12443 16.1473L7.96203 16.3567V3.70379H10.3606V19.4198ZM18.6819 3.70379L18.4133 6.25587H14.1975V10.4055H18.0123L17.2966 18.2226L11.6454 19.4784V16.8587L14.9868 16.139L15.2052 12.9064H11.6454V3.70379H18.6819Z" fill="white"/>
</svg>
