<svg width="20" height="20" viewBox="0 0 20 20" fill="none" xmlns="http://www.w3.org/2000/svg">
<path d="M18.5576 -0.00012207H1.44241C0.645752 -0.00012207 0 0.64563 0 1.44229V18.5575C0 19.3541 0.645752 19.9999 1.44241 19.9999H18.5576C19.3542 19.9999 20 19.3541 20 18.5575V1.44229C20 0.64563 19.3542 -0.00012207 18.5576 -0.00012207V-0.00012207ZM7.09412 15.1171H4.65866V7.78995H7.09412V15.1171ZM5.87646 6.78943H5.8606C5.04333 6.78943 4.51477 6.22684 4.51477 5.52371C4.51477 4.80472 5.05951 4.25769 5.89264 4.25769C6.72577 4.25769 7.23846 4.80472 7.25433 5.52371C7.25433 6.22684 6.72577 6.78943 5.87646 6.78943ZM15.8759 15.1171H13.4407V11.1972C13.4407 10.2121 13.0881 9.54028 12.2069 9.54028C11.5341 9.54028 11.1334 9.99347 10.9573 10.4309C10.8929 10.5875 10.8772 10.8063 10.8772 11.0253V15.1171H8.44193C8.44193 15.1171 8.47382 8.47736 8.44193 7.78995H10.8772V8.82739C11.2009 8.32812 11.7799 7.61798 13.0721 7.61798C14.6744 7.61798 15.8759 8.66519 15.8759 10.9157V15.1171Z" fill="white"/>
</svg>

